<?xml version="1.0" encoding="utf-8"?>
<!-- Generator: Adobe Illustrator 28.0.0, SVG Export Plug-In . SVG Version: 6.00 Build 0)  -->
<svg version="1.1" id="Layer_1" xmlns="http://www.w3.org/2000/svg" xmlns:xlink="http://www.w3.org/1999/xlink" x="0px" y="0px"
	 viewBox="91 472 1014 134" style="enable-background:new 0 0 1200 1200;" xml:space="preserve">
<style type="text/css">
	.st0{fill:#B4BDC8;stroke:#B4BDC8;stroke-miterlimit:10;}
	.st1{stroke:#000000;stroke-miterlimit:10;}
	.st2{fill:#177FC1;stroke:#177FC1;stroke-miterlimit:10;}
	.st3{fill:#D26127;stroke:#D26127;stroke-miterlimit:10;}
</style>
<g id="Layer_1_00000155850789519458903860000006186763571846315399_">
	<path d="M629.64,585.1c-3.34-1.82,4.39-47.16,40.75-73.98c5.75-4.24,23.9-17.63,48.28-18.81c16.67-0.81,39.83,3.93,45.14,5.02
		c2.75,0.56,6.43,1.37,12.54,2.51c9.33,1.74,18.67,3.47,28.84,4.39c6.35,0.57,17.66,1.53,31.98,0c11.25-1.2,19.25-3.4,31.98-6.9
		c17.11-4.7,18.81-6.5,30.09-9.4c5.52-1.42,20.74-5.01,40.13-5.02c13.89-0.01,33.98-0.01,55.17,10.03
		c9.3,4.41,9.05,6.12,29.57,17.21c13,7.03,19.51,10.54,26.23,12.88c23.09,8.03,43.89,4.99,43.89,5.64c0,0.56-15.43-0.46-35.11,4.39
		c-6.01,1.48-10.59,3.06-12.54,3.76c-15.7,5.63-26.25,13.1-28.21,14.42c-14.86,10.01-97.67,45.3-198.75,43.26
		c-47.64-0.96-92.71-1.87-118.5-16.93c-3.72-2.17-19.49-11.91-37.58-9.73c-12.09,1.45-21.67,7.38-21.67,7.38
		C633.27,580.55,630.86,585.76,629.64,585.1z"/>
</g>
<g id="Layer_4">
	<path class="st0" d="M749.92,507.99c-7.65,8.1-4.85,23.25-1.25,42.63c0.58,2.62,1.49,6.34,2.85,10.76
		c1.64,5.32,2.49,8.04,4.05,10.56c3.38,5.49,8.51,8.03,11.29,9.4c16.5,8.17,50.39,7.17,58.31,6.9c37.67-1.31,45.88-4.24,52.67-10.03
		c5.74-4.9,10.53-11.91,11.91-13.99c6.84-10.33,9.54-20.01,11.09-25.4c1.81-6.31,2.44-11.23,2.92-14.78
		c1.99-14.72,2.99-22.08,0.41-25.44c-7.44-9.73-35.75,13.46-77.12,15.67C784.83,516.52,762.05,495.16,749.92,507.99z"/>
</g>
<g id="Layer_3">
	<path class="st1" d="M776.83,509.23c-1.02,0.66-1.6,1.54-1.9,2.17c-4.78,9.85-4.21,20.1-4.21,20.1c0.29,5.14,0.87,13.67,6.43,22.89
		c1.22,2.03,6.76,10.84,18.03,16.78c11.04,5.82,21.26,5.55,26.97,5.33c4.64-0.18,20.34-1.01,34.96-12.23c0,0,24.1-18.5,22.26-58.17
		c-0.03-0.56-0.09-2.05-1.1-2.82c-1.4-1.08-3.78-0.15-4.66,0.19c-5.29,2.04-10.86,3.28-16.14,5.34c-4.48,1.75-7.88,2.38-14.69,3.64
		c-3.71,0.69-10.74,1.99-18.69,1.94c-12.96-0.08-34.05-3.79-40.9-5.58C782.16,508.54,779.16,507.71,776.83,509.23z"/>
</g>
<g id="Layer_5">
	<path class="st2" d="M800.13,513.59c-1.6,1.15-2.02,3.04-2.8,6.76c-0.45,2.13-0.97,4.61-0.79,7.88c0.11,2.03,0.68,8.22,4.59,13.49
		c6.78,9.13,18.97,9.29,21.64,9.32c1.67,0.02,13.44-0.01,22.14-8.82c3.33-3.37,4.86-6.67,6.54-10.28c0,0,3.98-8.57,2.78-18.54
		c-0.05-0.46-0.2-1.07-0.66-1.52c-0.75-0.73-1.91-0.67-2.45-0.63c-4.08,0.31-17.28,2.79-24.85,3.04c-2.96,0.1-5.76-0.11-8.33-0.31
		c-2.22-0.17-6.18-0.54-11-0.87C802.24,512.79,801.2,512.82,800.13,513.59z"/>
</g>
<g id="Layer_6">
	<path class="st3" d="M983.1,494.28c-0.26,0.38,0.19,1.37,1.08,3.34c0.61,1.35,1.25,2.46,1.77,3.28c0,0,2.81,4.63,3.83,12.87
		c0.88,7.12-1.28,12.87-3.7,19.29c-1.15,3.06-4.41,11.05-11.27,19.63c-2.18,2.73-5.73,7.11-11.47,11.48
		c-7.63,5.8-13.91,7.62-13.7,8.18c0.18,0.49,8.27-2.14,24.43-7.44c12.13-3.97,18.46-6.13,24.11-12.22c0.57-0.61,2.53-2.77,4.49-6.03
		c4.41-7.35,5.09-14.12,5.75-20.66c0.78-7.7-0.06-11.98-0.63-14.22c-0.47-1.86-0.86-3.32-1.85-5.08c-0.55-0.97-2.57-4.31-10.9-8.61
		C991.31,496.17,984.04,492.88,983.1,494.28z"/>
	<path class="st3" d="M703.32,500.3c0.73,1-2.85,4.1-6.68,9c-3.86,4.93-11.76,15.05-12.25,27c-0.48,11.75,6.47,20.9,9.53,24.94
		c6.91,9.12,15.53,13.7,15.11,14.32c-0.32,0.47-4.71-3-12.6-6.22c-9.91-4.04-19.74-6.72-19.74-6.72c-1.78-0.49-4.38-1.16-6.88-3.32
		c-2.76-2.39-3.9-5.29-4.49-6.86c-0.79-2.09-1.59-5.69-1.09-11.84c1.07-13.06,8.62-21.95,9.96-23.48
		c4.07-4.67,8.01-6.99,14.59-10.87C693.25,503.63,702.26,498.85,703.32,500.3z"/>
</g>
<path d="M565.77,587.33c3.34-1.82-4.39-47.16-40.75-73.98c-5.75-4.24-23.9-17.63-48.28-18.81c-16.67-0.81-39.83,3.93-45.14,5.02
	c-2.75,0.56-6.43,1.37-12.54,2.51c-9.33,1.74-18.67,3.47-28.84,4.39c-6.35,0.57-17.66,1.53-31.98,0c-11.25-1.2-19.25-3.4-31.98-6.9
	c-17.11-4.7-18.81-6.5-30.09-9.4c-5.52-1.42-20.74-5.01-40.13-5.02c-13.89-0.01-33.98-0.01-55.17,10.03
	c-9.3,4.41-9.05,6.12-29.57,17.21c-13,7.03-19.51,10.54-26.23,12.88c-23.09,8.03-43.89,4.99-43.89,5.64
	c0,0.56,15.43-0.46,35.11,4.39c6.01,1.48,10.59,3.06,12.54,3.76c15.7,5.63,26.25,13.1,28.21,14.42
	c14.86,10.01,97.67,45.3,198.75,43.26c47.64-0.96,92.71-1.87,118.5-16.93c3.72-2.17,19.49-11.91,37.58-9.73
	c12.09,1.45,21.67,7.38,21.67,7.38C562.15,582.79,564.56,587.99,565.77,587.33z"/>
<path class="st0" d="M445.49,510.23c7.65,8.1,4.85,23.25,1.25,42.63c-0.58,2.62-1.49,6.34-2.85,10.76
	c-1.64,5.32-2.49,8.04-4.05,10.56c-3.38,5.49-8.51,8.03-11.29,9.4c-16.5,8.17-50.39,7.17-58.31,6.9
	c-37.67-1.31-45.88-4.24-52.67-10.03c-5.74-4.9-10.53-11.91-11.91-13.99c-6.84-10.33-9.54-20.01-11.09-25.4
	c-1.81-6.31-2.44-11.23-2.92-14.78c-1.99-14.72-2.99-22.08-0.41-25.44c7.44-9.73,35.75,13.46,77.12,15.67
	C410.59,518.75,433.37,497.39,445.49,510.23z"/>
<path class="st1" d="M418.59,511.47c1.02,0.66,1.6,1.54,1.9,2.17c4.78,9.85,4.21,20.1,4.21,20.1c-0.29,5.14-0.87,13.67-6.43,22.89
	c-1.22,2.03-6.76,10.84-18.03,16.78c-11.04,5.82-21.26,5.55-26.97,5.33c-4.64-0.18-20.34-1.01-34.96-12.23
	c0,0-24.1-18.5-22.26-58.17c0.03-0.56,0.09-2.05,1.1-2.82c1.4-1.08,3.78-0.15,4.66,0.19c5.29,2.04,10.86,3.28,16.14,5.34
	c4.48,1.75,7.88,2.38,14.69,3.64c3.71,0.69,10.74,1.99,18.69,1.94c12.96-0.08,34.05-3.79,40.9-5.58
	C413.26,510.77,416.26,509.95,418.59,511.47z"/>
<path class="st2" d="M395.29,515.83c1.6,1.15,2.02,3.04,2.8,6.76c0.45,2.13,0.97,4.61,0.79,7.88c-0.11,2.03-0.68,8.22-4.59,13.49
	c-6.78,9.13-18.97,9.29-21.64,9.32c-1.67,0.02-13.44-0.01-22.14-8.82c-3.33-3.37-4.86-6.67-6.54-10.28c0,0-3.98-8.57-2.78-18.54
	c0.05-0.46,0.2-1.07,0.66-1.52c0.75-0.73,1.91-0.67,2.45-0.63c4.08,0.31,17.28,2.79,24.85,3.04c2.96,0.1,5.76-0.11,8.33-0.31
	c2.22-0.17,6.18-0.54,11-0.87C393.18,515.03,394.22,515.06,395.29,515.83z"/>
<path class="st3" d="M212.31,496.51c0.26,0.38-0.19,1.37-1.08,3.34c-0.61,1.35-1.25,2.46-1.77,3.28c0,0-2.81,4.63-3.83,12.87
	c-0.88,7.12,1.28,12.87,3.7,19.29c1.15,3.06,4.41,11.05,11.27,19.63c2.18,2.73,5.73,7.11,11.47,11.48c7.63,5.8,13.91,7.62,13.7,8.18
	c-0.18,0.49-8.27-2.14-24.43-7.44c-12.13-3.97-18.46-6.13-24.11-12.22c-0.57-0.61-2.53-2.77-4.49-6.03
	c-4.41-7.35-5.09-14.12-5.75-20.66c-0.78-7.7,0.06-11.98,0.63-14.22c0.47-1.86,0.86-3.32,1.85-5.08c0.55-0.97,2.57-4.31,10.9-8.61
	C204.11,498.4,211.38,495.11,212.31,496.51z"/>
<path class="st3" d="M492.1,502.54c-0.73,1,2.85,4.1,6.68,9c3.86,4.93,11.76,15.05,12.25,27c0.48,11.75-6.47,20.9-9.53,24.94
	c-6.91,9.12-15.53,13.7-15.11,14.32c0.32,0.47,4.71-3,12.6-6.22c9.91-4.04,19.74-6.72,19.74-6.72c1.78-0.49,4.38-1.16,6.88-3.32
	c2.76-2.39,3.9-5.29,4.49-6.86c0.79-2.09,1.59-5.69,1.09-11.84c-1.07-13.06-8.62-21.95-9.96-23.48c-4.07-4.67-8.01-6.99-14.59-10.87
	C502.17,505.86,493.16,501.08,492.1,502.54z"/>
</svg>
